HIERARCHY
ROOT hip
{
  OFFSET 0 0 0
  CHANNELS 6 Xposition Yposition Zposition Zrotation Yrotation Xrotation
  JOINT abdomen
  {
    OFFSET 0 20.6881 -0.73152
    CHANNELS 3 Zrotation Xrotation Yrotation
    JOINT chest
    {
      OFFSET 0 11.7043 -0.48768
      CHANNELS 3 Zrotation Xrotation Yrotation
      JOINT neck
      {
        OFFSET 0 22.1894 -2.19456
        CHANNELS 3 Zrotation Xrotation Yrotation
        JOINT head
        {
          OFFSET -0.24384 7.07133 1.2192
          CHANNELS 3 Zrotation Xrotation Yrotation
          JOINT leftEye
          {
            OFFSET 4.14528 8.04674 8.04672
            CHANNELS 3 Zrotation Xrotation Yrotation
            End Site
            {
              OFFSET 1 0 0
            }
          }
          JOINT rightEye
          {
            OFFSET -3.6576 8.04674 8.04672
            CHANNELS 3 Zrotation Xrotation Yrotation
            End Site
            {
              OFFSET 1 0 0
            }
          }
        }
      }
      JOINT rCollar
      {
        OFFSET -2.68224 19.2634 -4.8768
        CHANNELS 3 Zrotation Xrotation Yrotation
        JOINT rShldr
        {
          OFFSET -8.77824 -1.95073 1.46304
          CHANNELS 3 Zrotation Xrotation Yrotation
          JOINT rForeArm
          {
            OFFSET -28.1742 -1.7115 0.48768
            CHANNELS 3 Zrotation Xrotation Yrotation
            JOINT rHand
            {
              OFFSET -22.5879 0.773209 7.07136
              CHANNELS 3 Zrotation Xrotation Yrotation
              JOINT rThumb1
              {
                OFFSET -1.2192 -0.487915 3.41376
                CHANNELS 3 Zrotation Xrotation Yrotation
                JOINT rThumb2
                {
                  OFFSET -3.37035 -0.52449 3.41376
                  CHANNELS 3 Zrotation Xrotation Yrotation
                  End Site
                  {
                    OFFSET -1.78271 -1.18214 1.43049
                  }
                }
              }
              JOINT rIndex1
              {
                OFFSET -7.75947 0.938293 5.60832
                CHANNELS 3 Zrotation Xrotation Yrotation
                JOINT rIndex2
                {
                  OFFSET -2.54057 -0.884171 1.56538
                  CHANNELS 3 Zrotation Xrotation Yrotation
                  End Site
                  {
                    OFFSET -1.62519 -0.234802 1.16502
                  }
                }
              }
              JOINT rMid1
              {
                OFFSET -8.24714 1.18213 3.41376
                CHANNELS 3 Zrotation Xrotation Yrotation
                JOINT rMid2
                {
                  OFFSET -3.10165 -0.590103 1.0647
                  CHANNELS 3 Zrotation Xrotation Yrotation
                  End Site
                  {
                    OFFSET -2.48547 -0.328903 0.83742
                  }
                }
              }
              JOINT rRing1
              {
                OFFSET -8.82822 0.546677 1.51678
                CHANNELS 3 Zrotation Xrotation Yrotation
                JOINT rRing2
                {
                  OFFSET -2.60934 -0.819778 -0.0198488
                  CHANNELS 3 Zrotation Xrotation Yrotation
                  End Site
                  {
                    OFFSET -2.33842 -0.294052 0.168128
                  }
                }
              }
              JOINT rPinky1
              {
                OFFSET -8.27202 -0.0477905 -0.4584
                CHANNELS 3 Zrotation Xrotation Yrotation
                JOINT rPinky2
                {
                  OFFSET -1.82734 -0.647385 -0.700984
                  CHANNELS 3 Zrotation Xrotation Yrotation
                  End Site
                  {
                    OFFSET -1.69225 -0.51767 -0.607171
                  }
                }
              }
            }
          }
        }
      }
      JOINT lCollar
      {
        OFFSET 2.68224 19.2634 -4.8768
        CHANNELS 3 Zrotation Xrotation Yrotation
        JOINT lShldr
        {
          OFFSET 8.77824 -1.95073 1.46304
          CHANNELS 3 Zrotation Xrotation Yrotation
          JOINT lForeArm
          {
            OFFSET 28.1742 -1.7115 0.48768
            CHANNELS 3 Zrotation Xrotation Yrotation
            JOINT lHand
            {
              OFFSET 22.5879 0.773209 7.07136
              CHANNELS 3 Zrotation Xrotation Yrotation
              JOINT lThumb1
              {
                OFFSET 1.2192 -0.487915 3.41376
                CHANNELS 3 Zrotation Xrotation Yrotation
                JOINT lThumb2
                {
                  OFFSET 3.37035 -0.52449 3.41376
                  CHANNELS 3 Zrotation Xrotation Yrotation
                  End Site
                  {
                    OFFSET 1.78271 -1.18214 1.43049
                  }
                }
              }
              JOINT lIndex1
              {
                OFFSET 7.75947 0.938293 5.60832
                CHANNELS 3 Zrotation Xrotation Yrotation
                JOINT lIndex2
                {
                  OFFSET 2.54057 -0.884171 1.56538
                  CHANNELS 3 Zrotation Xrotation Yrotation
                  End Site
                  {
                    OFFSET 1.62519 -0.234802 1.16502
                  }
                }
              }
              JOINT lMid1
              {
                OFFSET 8.24714 1.18213 3.41376
                CHANNELS 3 Zrotation Xrotation Yrotation
                JOINT lMid2
                {
                  OFFSET 3.10165 -0.590103 1.0647
                  CHANNELS 3 Zrotation Xrotation Yrotation
                  End Site
                  {
                    OFFSET 2.48547 -0.328903 0.83742
                  }
                }
              }
              JOINT lRing1
              {
                OFFSET 8.82822 0.546677 1.51678
                CHANNELS 3 Zrotation Xrotation Yrotation
                JOINT lRing2
                {
                  OFFSET 2.60934 -0.819778 -0.0198488
                  CHANNELS 3 Zrotation Xrotation Yrotation
                  End Site
                  {
                    OFFSET 2.33842 -0.294052 0.168128
                  }
                }
              }
              JOINT lPinky1
              {
                OFFSET 8.27202 -0.0477905 -0.4584
                CHANNELS 3 Zrotation Xrotation Yrotation
                JOINT lPinky2
                {
                  OFFSET 1.82734 -0.647385 -0.700984
                  CHANNELS 3 Zrotation Xrotation Yrotation
                  End Site
                  {
                    OFFSET 1.69225 -0.51767 -0.607171
                  }
                }
              }
            }
          }
        }
      }
    }
  }
  JOINT rButtock
  {
    OFFSET -8.77824 4.35084 1.2192
    CHANNELS 3 Zrotation Xrotation Yrotation
    JOINT rThigh
    {
      OFFSET 0 -1.70687 -2.19456
      CHANNELS 3 Zrotation Xrotation Yrotation
      JOINT rShin
      {
        OFFSET 0 -36.8199 0.73152
        CHANNELS 3 Zrotation Xrotation Yrotation
        JOINT rFoot
        {
          OFFSET 0.73152 -45.1104 -5.12064
          CHANNELS 3 Zrotation Xrotation Yrotation
          End Site
          {
            OFFSET -1.1221 -3.69964 12.103
          }
        }
      }
    }
  }
  JOINT lButtock
  {
    OFFSET 8.77824 4.35084 1.2192
    CHANNELS 3 Zrotation Xrotation Yrotation
    JOINT lThigh
    {
      OFFSET 0 -1.70687 -2.19456
      CHANNELS 3 Zrotation Xrotation Yrotation
      JOINT lShin
      {
        OFFSET 0 -36.8199 0.73152
        CHANNELS 3 Zrotation Xrotation Yrotation
        JOINT lFoot
        {
          OFFSET -0.73152 -45.1104 -5.12064
          CHANNELS 3 Zrotation Xrotation Yrotation
          End Site
          {
            OFFSET 1.1221 -3.69964 12.103
          }
        }
      }
    }
  }
}
MOTION
Frames:	9
Frame Time:	0.00833333
-39.0424 84.1002 7.14611 0.0 0.0 0.0 -1.51927 -0.00282938 -0.0413937 -0.418702 0.00102627 -0.0725117 2.82142e-14 7.95139e-16 9.93923e-17 8.43686e-14 9.54166e-15 1.69278e-16 -0.0 0.0 0.0 -0.0 0.0 0.0 1.4262e-14 1.70831e-17 2.48481e-16 2.96248e-13 7.45443e-17 2.18663e-15 5.08894e-12 -1.51295e-12 -3.49861e-14 5.82612e-11 1.59107e-12 1.65389e-13 1.37424e-10 1.74829e-13 2.79889e-13 2.3731e-10 3.05333e-13 4.72312e-13 1.37426e-10 1.72943e-13 2.70347e-13 7.73091 5.47488 0.417314 1.37424e-10 1.74831e-13 2.79889e-13 2.90554 0.965183 0.102902 1.37428e-10 1.74831e-13 2.77503e-13 10.2786 0.731801 0.0259123 1.37417e-10 1.78509e-13 2.83069e-13 2.22167 -0.733487 -0.20892 1.39663e-14 1.68889e-17 -1.49089e-16 2.9512e-13 3.60297e-16 5.96354e-16 5.0948e-12 1.53661e-12 -3.18055e-14 5.82717e-11 -1.44658e-12 1.74931e-13 1.37462e-10 1.9685e-13 2.73528e-13 2.37402e-10 3.435e-13 4.72312e-13 1.37456e-10 1.96002e-13 2.8943e-13 -7.73091 5.47488 -0.417314 1.37462e-10 1.96002e-13 2.70347e-13 -2.90554 0.965183 -0.102902 1.37455e-10 1.96896e-13 2.75118e-13 -10.2786 0.731801 -0.0259123 1.37469e-10 1.99182e-13 2.63986e-13 -2.22167 -0.733487 0.20892 -2.03217e-16 0.0 -3.88251e-19 -0.640493 -1.92323 -0.00643707 -0.00925499 -2.07856 -0.0764309 -0.5122 3.99733 0.140319 2.03217e-16 0.0 3.88251e-19 -1.66969 -6.49783 0.154694 -0.00231089 6.20801 -0.067986 0.533998 0.285484 -0.0665625
-38.5537 81.9597 1.07033 -77.0016 88.57 -62.1908 -1.43571 1.59766 0.977122 1.1285 0.422949 0.229436 0.38809 0.164775 -0.202384 -1.66938 5.43903 0.439669 -0.0 0.0 0.0 -0.0 0.0 0.0 1.00472e-14 2.91511e-14 -4.98825e-15 24.995 8.83073 7.63962 -2.96636 -1.16829 4.80988 0.190192 -9.70015 -1.29377 3.70291e-10 4.07158e-10 7.16603e-10 6.23524e-10 6.98132e-10 1.24192e-09 3.70295e-10 4.07157e-10 7.16595e-10 7.73091 5.47488 0.417314 3.70291e-10 4.07158e-10 7.166e-10 2.90554 0.965183 0.102902 3.70296e-10 4.07158e-10 7.16599e-10 10.2786 0.731801 0.0259123 3.70285e-10 4.07161e-10 7.16604e-10 2.22167 -0.733487 -0.20892 9.84126e-15 2.9151e-14 -5.36214e-15 -24.624 22.2712 -8.69249 3.98455 -1.76609 -6.27081 -0.267493 -11.5169 1.50302 6.07707e-10 5.33099e-10 -6.51576e-10 1.06652e-09 9.07386e-10 -1.10658e-09 6.07701e-10 5.33101e-10 -6.5156e-10 -7.73091 5.47488 -0.417314 6.07708e-10 5.33098e-10 -6.51577e-10 -2.90554 0.965183 -0.102902 6.077e-10 5.33099e-10 -6.51575e-10 -10.2786 0.731801 -0.0259123 6.07714e-10 5.331e-10 -6.51585e-10 -2.22167 -0.733487 0.20892 -2.03217e-16 0.0 -3.88251e-19 -3.5164 -10.3746 -0.702009 -0.00303827 6.62189 0.0540348 -0.613329 1.45306 -2.37976 2.03217e-16 0.0 3.88251e-19 1.51725 -14.0015 1.55974 -0.018844 12.9627 -0.194493 0.291711 -2.16133 -1.03459
-38.5347 81.9605 1.04882 -77.6903 88.6659 -62.8533 -1.40898 3.28786 2.05554 2.75979 0.869281 0.548408 0.79776 0.34051 -0.415995 -3.52511 11.1835 0.918163 -0.0 0.0 0.0 -0.0 0.0 0.0 4.34096e-15 6.93119e-14 -1.27719e-14 48.7742 17.6415 16.3157 -5.88951 -2.37575 9.9006 -0.112613 -19.9416 -2.79134 6.25029e-10 8.2613e-10 1.44532e-09 1.04729e-09 1.41658e-09 2.5053e-09 6.25035e-10 8.26129e-10 1.44531e-09 7.73091 5.47488 0.417314 6.2503e-10 8.2613e-10 1.44531e-09 2.90554 0.965183 0.102902 6.25036e-10 8.2613e-10 1.44531e-09 10.2786 0.731801 0.0259123 6.25023e-10 8.26131e-10 1.44532e-09 2.22167 -0.733487 -0.20892 4.23191e-15 6.9312e-14 -1.31229e-14 -40.8926 43.8676 -23.2564 7.77918 -3.5626 -12.919 0.161428 -23.6713 3.30905 1.09707e-09 1.08395e-09 -1.32435e-09 1.92919e-09 1.84481e-09 -2.24901e-09 1.09706e-09 1.08395e-09 -1.32434e-09 -7.73091 5.47488 -0.417314 1.09707e-09 1.08395e-09 -1.32435e-09 -2.90554 0.965183 -0.102902 1.09706e-09 1.08395e-09 -1.32435e-09 -10.2786 0.731801 -0.0259123 1.09708e-09 1.08395e-09 -1.32436e-09 -2.22167 -0.733487 0.20892 -2.03217e-16 0.0 -3.88251e-19 -6.79204 -19.3037 -1.49915 -0.040744 15.818 0.198655 -0.962878 -1.22826 -5.04108 2.03217e-16 0.0 3.88251e-19 5.3167 -21.9141 3.18014 -0.00173637 20.1041 -0.339088 -0.0544535 -4.74689 -2.06199
-38.5056 81.961 1.03931 -78.819 88.7065 -63.991 -1.43973 4.7927 3.02359 4.20956 1.26667 0.833517 1.16776 0.494299 -0.607171 -5.26749 16.3132 1.36816 -0.0 0.0 0.0 -0.0 0.0 0.0 1.61747e-15 8.74191e-14 -1.54617e-14 67.5522 24.5223 25.037 -8.31665 -3.40621 14.4527 -0.902884 -29.0367 -4.37683 8.36025e-10 1.22113e-09 2.14925e-09 1.39595e-09 2.09379e-09 3.7248e-09 8.36032e-10 1.22112e-09 2.14924e-09 7.73091 5.47488 0.417314 8.36026e-10 1.22113e-09 2.14924e-09 2.90554 0.965183 0.102902 8.36033e-10 1.22113e-09 2.14924e-09 10.2786 0.731801 0.0259123 8.3602e-10 1.22113e-09 2.14925e-09 2.22167 -0.733487 -0.20892 1.59115e-15 8.74192e-14 -1.57882e-14 -39.1912 57.4907 -49.4931 10.8133 -5.04492 -18.8794 1.33484 -34.445 5.36012 1.5482e-09 1.5989e-09 -1.95527e-09 2.72475e-09 2.72147e-09 -3.32069e-09 1.54819e-09 1.59891e-09 -1.95526e-09 -7.73091 5.47488 -0.417314 1.5482e-09 1.5989e-09 -1.95527e-09 -2.90554 0.965183 -0.102902 1.54819e-09 1.5989e-09 -1.95528e-09 -10.2786 0.731801 -0.0259123 1.5482e-09 1.5989e-09 -1.95528e-09 -2.22167 -0.733487 0.20892 -2.03217e-16 0.0 -3.88251e-19 -9.95068 -27.2605 -2.31609 -0.11731 24.0224 0.34354 -1.48573 -3.60132 -7.43169 2.03217e-16 0.0 3.88251e-19 9.13887 -28.937 4.83795 0.0477471 26.4715 -0.4842 -0.442389 -7.04651 -2.99105
-38.4747 81.9615 1.04617 -81.0416 88.7133 -66.2443 -1.49352 5.83981 3.70676 5.21498 1.54183 1.03379 1.43609 0.59325 -0.74224 -6.5404 19.9098 1.70032 -0.0 0.0 0.0 -0.0 0.0 0.0 6.35082e-15 5.03921e-14 -5.41688e-15 79.2616 28.4653 31.8097 -9.91193 -4.08801 17.6364 -1.82163 -35.326 -5.71639 9.37664e-10 1.55618e-09 2.7912e-09 1.55685e-09 2.66789e-09 4.83462e-09 9.37673e-10 1.55618e-09 2.7912e-09 7.73091 5.47488 0.417314 9.37666e-10 1.55618e-09 2.79119e-09 2.90554 0.965183 0.102902 9.37673e-10 1.55618e-09 2.7912e-09 10.2786 0.731801 0.0259123 9.3766e-10 1.55618e-09 2.7912e-09 2.22167 -0.733487 -0.20892 6.37182e-15 5.03919e-14 -5.71506e-15 -27.5742 59.695 -76.6263 12.7423 -5.98311 -23.0563 2.77072 -41.8648 7.23529 1.90373e-09 2.02413e-09 -2.48156e-09 3.35254e-09 3.44626e-09 -4.2155e-09 1.90373e-09 2.02414e-09 -2.48154e-09 -7.73091 5.47488 -0.417314 1.90373e-09 2.02413e-09 -2.48155e-09 -2.90554 0.965183 -0.102902 1.90373e-09 2.02412e-09 -2.48156e-09 -10.2786 0.731801 -0.0259123 1.90374e-09 2.02412e-09 -2.48157e-09 -2.22167 -0.733487 0.20892 -2.03217e-16 0.0 -3.88251e-19 -12.3124 -32.8021 -2.97647 -0.199278 29.7479 0.46005 -1.97088 -5.24214 -9.12263 2.03217e-16 0.0 3.88251e-19 12.0944 -33.7999 6.1772 0.104687 30.9048 -0.598741 -0.758519 -8.63928 -3.65461
-38.4497 81.9622 1.04734 -83.1708 88.7424 -68.3888 -1.53057 6.25443 3.98217 5.60195 1.64617 1.11437 1.56689 0.607313 -0.798682 -7.07119 21.371 1.83239 -0.0 0.0 0.0 -0.0 0.0 0.0 2.52238e-14 -8.27988e-14 2.82488e-14 83.6238 29.6955 34.587 -10.5158 -4.34529 18.8861 -2.27321 -37.7075 -6.29952 8.68393e-10 1.86132e-09 3.46409e-09 1.42141e-09 3.19003e-09 5.9933e-09 8.68401e-10 1.86132e-09 3.46409e-09 7.73091 5.47488 0.417314 8.68394e-10 1.86132e-09 3.46408e-09 2.90554 0.965183 0.102902 8.684e-10 1.86132e-09 3.46408e-09 10.2786 0.731801 0.0259123 8.68389e-10 1.86132e-09 3.46409e-09 2.22167 -0.733487 -0.20892 2.52412e-14 -8.27998e-14 2.79902e-14 -22.994 58.4764 -86.8918 13.4602 -6.32664 -24.7015 3.50456 -44.6718 8.09982 2.17209e-09 2.37668e-09 -2.92573e-09 3.82756e-09 4.04859e-09 -4.97206e-09 2.17209e-09 2.37669e-09 -2.92572e-09 -7.73091 5.47488 -0.417314 2.1721e-09 2.37667e-09 -2.92573e-09 -2.90554 0.965183 -0.102902 2.17209e-09 2.37667e-09 -2.92574e-09 -10.2786 0.731801 -0.0259123 2.1721e-09 2.37667e-09 -2.92574e-09 -2.22167 -0.733487 0.20892 -2.03217e-16 0.0 -3.88251e-19 -13.2778 -34.9741 -3.24434 -0.239101 32.0053 0.510912 -2.19582 -5.89171 -9.81708 2.03217e-16 0.0 3.88251e-19 13.3204 -35.6827 6.75591 0.132688 32.6261 -0.647659 -0.894057 -9.24456 -3.93099
-38.4341 81.9619 1.04803 -82.6085 88.7772 -67.801 -1.54271 6.21827 3.96461 5.54816 1.6285 1.10945 1.59896 0.561133 -0.798963 -7.04892 21.3073 1.81081 -0.0 0.0 0.0 -0.0 0.0 0.0 5.40203e-14 -2.83774e-13 7.85106e-14 83.3002 29.4146 34.2143 -10.4512 -4.31814 18.7508 -2.20175 -37.3161 -6.20334 6.7789e-10 2.14251e-09 4.15347e-09 1.0759e-09 3.67066e-09 7.17725e-09 6.77897e-10 2.14252e-09 4.15347e-09 7.73091 5.47488 0.417314 6.77891e-10 2.14252e-09 4.15346e-09 2.90554 0.965183 0.102902 6.77895e-10 2.14252e-09 4.15346e-09 10.2786 0.731801 0.0259123 6.77888e-10 2.14252e-09 4.15347e-09 2.22167 -0.733487 -0.20892 5.39979e-14 -2.83777e-13 7.82994e-14 -23.409 58.6589 -85.8306 13.3865 -6.2929 -24.5286 3.38778 -44.2175 7.95798 2.37597e-09 2.67479e-09 -3.3082e-09 4.18957e-09 4.55916e-09 -5.62468e-09 2.37596e-09 2.67481e-09 -3.30818e-09 -7.73091 5.47488 -0.417314 2.37597e-09 2.67479e-09 -3.3082e-09 -2.90554 0.965183 -0.102902 2.37596e-09 2.67479e-09 -3.3082e-09 -10.2786 0.731801 -0.0259123 2.37597e-09 2.67479e-09 -3.30821e-09 -2.22167 -0.733487 0.20892 -2.03217e-16 0.0 -3.88251e-19 -13.1663 -34.7432 -3.17696 -0.234821 31.7854 0.505953 -2.18537 -5.84287 -9.79155 2.03217e-16 0.0 3.88251e-19 13.1688 -35.4528 6.69298 0.129313 32.4107 -0.642596 -0.881688 -9.14632 -3.92676
-38.4179 81.9607 1.0609 -81.4491 88.7674 -66.6162 -1.537 5.99485 3.83399 5.31892 1.5617 1.07162 1.58205 0.503863 -0.77688 -6.79697 20.6207 1.72832 -0.0 0.0 0.0 -0.0 0.0 0.0 8.08661e-14 -4.81502e-13 1.26143e-13 81.0512 28.5568 32.6033 -10.1225 -4.17926 18.068 -1.93227 -35.8639 -5.84989 4.67394e-10 2.32774e-09 4.66113e-09 6.99909e-10 3.98688e-09 8.04741e-09 4.674e-10 2.32774e-09 4.66113e-09 7.73091 5.47488 0.417314 4.67395e-10 2.32774e-09 4.66113e-09 2.90554 0.965183 0.102902 4.67397e-10 2.32774e-09 4.66113e-09 10.2786 0.731801 0.0259123 4.67394e-10 2.32774e-09 4.66113e-09 2.22167 -0.733487 -0.20892 8.07915e-14 -4.81506e-13 1.25973e-13 -25.8766 59.4072 -80.1962 12.9934 -6.10624 -23.6229 2.9424 -42.4709 7.42506 2.4794e-09 2.86642e-09 -3.56296e-09 4.37495e-09 4.88873e-09 -6.06069e-09 2.4794e-09 2.86643e-09 -3.56294e-09 -7.73091 5.47488 -0.417314 2.4794e-09 2.86641e-09 -3.56296e-09 -2.90554 0.965183 -0.102902 2.47939e-09 2.86641e-09 -3.56296e-09 -10.2786 0.731801 -0.0259123 2.47941e-09 2.86642e-09 -3.56296e-09 -2.22167 -0.733487 0.20892 -2.03217e-16 0.0 -3.88251e-19 -12.6236 -33.5525 -2.98619 -0.212811 30.5716 0.478605 -2.07694 -5.51076 -9.4665 2.03217e-16 0.0 3.88251e-19 12.4768 -34.3855 6.38373 0.113463 31.4276 -0.615979 -0.810934 -8.77239 -3.81278
-38.3953 81.9596 1.0776 -80.6079 88.7412 -65.7672 -1.52135 5.84765 3.77039 5.17946 1.51865 1.05344 1.56588 0.484657 -0.766227 -6.63999 20.2133 1.67844 -0.0 0.0 0.0 -0.0 0.0 0.0 9.38871e-14 -6.0495e-13 1.51921e-13 79.6391 28.0498 31.6594 -9.93259 -4.10048 17.6751 -1.78958 -35.0631 -5.66079 3.38144e-10 2.34496e-09 4.78887e-09 4.73051e-10 4.01578e-09 8.2647e-09 3.38149e-10 2.34497e-09 4.78886e-09 7.73091 5.47488 0.417314 3.38144e-10 2.34497e-09 4.78887e-09 2.90554 0.965183 0.102902 3.38146e-10 2.34497e-09 4.78887e-09 10.2786 0.731801 0.0259123 3.38144e-10 2.34497e-09 4.78887e-09 2.22167 -0.733487 -0.20892 9.37718e-14 -6.04954e-13 1.51772e-13 -27.5485 59.7032 -76.6137 12.7495 -5.98838 -23.0703 2.69263 -41.4012 7.11775 2.44645e-09 2.89948e-09 -3.62402e-09 4.32009e-09 4.94806e-09 -6.16743e-09 2.44645e-09 2.89949e-09 -3.624e-09 -7.73091 5.47488 -0.417314 2.44645e-09 2.89948e-09 -3.62402e-09 -2.90554 0.965183 -0.102902 2.44644e-09 2.89948e-09 -3.62402e-09 -10.2786 0.731801 -0.0259123 2.44646e-09 2.89948e-09 -3.62403e-09 -2.22167 -0.733487 0.20892 -2.03217e-16 0.0 -3.88251e-19 -12.2948 -32.8453 -2.88416 -0.200272 29.8469 0.462843 -2.01235 -5.30957 -9.26307 2.03217e-16 0.0 3.88251e-19 12.0873 -33.7556 6.22743 0.104512 30.8457 -0.600536 -0.772479 -8.55042 -3.76007
